<?xml version="1.0" encoding="UTF-8" standalone="no"?>
<!DOCTYPE svg PUBLIC "-//W3C//DTD SVG 1.1//EN"
 "http://www.w3.org/Graphics/SVG/1.1/DTD/svg11.dtd">
<!-- Generated by graphviz version 2.40.1 (20161225.0304)
 -->
<!-- Title: G Pages: 1 -->
<svg width="659pt" height="670pt"
 viewBox="0.00 0.00 658.85 670.18" xmlns="http://www.w3.org/2000/svg" xmlns:xlink="http://www.w3.org/1999/xlink">
<g id="graph0" class="graph" transform="scale(1 1) rotate(0) translate(4 666.1808)">
<title>G</title>
<polygon fill="#ffffff" stroke="transparent" points="-4,4 -4,-666.1808 654.8528,-666.1808 654.8528,4 -4,4"/>
<text text-anchor="middle" x="325.4264" y="-22.8" font-family="Times,serif" font-size="14.00" fill="#000000">Algorithm Flowchart:</text>
<text text-anchor="middle" x="325.4264" y="-7.8" font-family="Times,serif" font-size="14.00" fill="#000000">CCDCesque</text>
<g id="clust5" class="cluster">
<title>cluster0</title>
<polygon fill="none" stroke="#000000" points="8,-120.7401 8,-467.8305 302,-467.8305 302,-120.7401 8,-120.7401"/>
<text text-anchor="middle" x="155" y="-452.6305" font-family="Times,serif" font-size="14.00" fill="#000000">Historic Period</text>
</g>
<g id="clust6" class="cluster">
<title>cluster1</title>
<polygon fill="none" stroke="#000000" points="310,-192.4802 310,-476.7006 573,-476.7006 573,-192.4802 310,-192.4802"/>
<text text-anchor="middle" x="441.5" y="-461.5006" font-family="Times,serif" font-size="14.00" fill="#000000">Monitoring Period</text>
</g>
<!-- preprocess -->
<g id="node1" class="node">
<title>preprocess</title>
<polygon fill="none" stroke="#000000" points="356.5,-653.3107 279.5,-653.3107 279.5,-617.3107 356.5,-617.3107 356.5,-653.3107"/>
<text text-anchor="middle" x="318" y="-631.6107" font-family="Times,serif" font-size="14.00" fill="#000000">preprocess</text>
</g>
<!-- fit -->
<g id="node2" class="node">
<title>fit</title>
<polygon fill="none" stroke="#000000" points="446,-653.3107 392,-653.3107 392,-617.3107 446,-617.3107 446,-653.3107"/>
<text text-anchor="middle" x="419" y="-631.6107" font-family="Times,serif" font-size="14.00" fill="#000000">fit</text>
</g>
<!-- preprocess&#45;&gt;fit -->
<g id="edge1" class="edge">
<title>preprocess&#45;&gt;fit</title>
<path fill="none" stroke="#000000" d="M356.6641,-635.3107C364.9735,-635.3107 373.2829,-635.3107 381.5924,-635.3107"/>
<polygon fill="#000000" stroke="#000000" points="381.7281,-638.8108 391.728,-635.3107 381.728,-631.8108 381.7281,-638.8108"/>
</g>
<!-- while -->
<g id="node3" class="node">
<title>while</title>
<ellipse fill="none" stroke="#000000" cx="566" cy="-635.3107" rx="84.7059" ry="26.7407"/>
<text text-anchor="middle" x="566" y="-639.1107" font-family="Times,serif" font-size="14.00" fill="#000000">while</text>
<text text-anchor="middle" x="566" y="-624.1107" font-family="Times,serif" font-size="14.00" fill="#000000">(has observations)</text>
</g>
<!-- fit&#45;&gt;while -->
<g id="edge2" class="edge">
<title>fit&#45;&gt;while</title>
<path fill="none" stroke="#000000" d="M446.2754,-635.3107C454.4767,-635.3107 462.6781,-635.3107 470.8794,-635.3107"/>
<polygon fill="#000000" stroke="#000000" points="470.8833,-638.8108 480.8833,-635.3107 470.8833,-631.8108 470.8833,-638.8108"/>
</g>
<!-- trained -->
<g id="node4" class="node">
<title>trained</title>
<ellipse fill="none" stroke="#000000" cx="434" cy="-544.5706" rx="55.3091" ry="26.7407"/>
<text text-anchor="middle" x="434" y="-548.3706" font-family="Times,serif" font-size="14.00" fill="#000000">Segment</text>
<text text-anchor="middle" x="434" y="-533.3706" font-family="Times,serif" font-size="14.00" fill="#000000">initialized?</text>
</g>
<!-- while&#45;&gt;trained -->
<g id="edge3" class="edge">
<title>while&#45;&gt;trained</title>
<path fill="none" stroke="#000000" d="M530.2789,-610.7552C513.0877,-598.9375 492.3973,-584.7144 474.6099,-572.4869"/>
<polygon fill="#000000" stroke="#000000" points="476.3626,-569.4446 466.1392,-566.6639 472.3972,-575.2131 476.3626,-569.4446"/>
</g>
<!-- clean -->
<g id="node6" class="node">
<title>clean</title>
<polygon fill="none" stroke="#000000" points="287,-436.8305 177,-436.8305 177,-400.8305 287,-400.8305 287,-436.8305"/>
<text text-anchor="middle" x="232" y="-415.1305" font-family="Times,serif" font-size="14.00" fill="#000000">Multitemp mask</text>
</g>
<!-- trained&#45;&gt;clean -->
<g id="edge4" class="edge">
<title>trained&#45;&gt;clean</title>
<path fill="none" stroke="#000000" d="M394.3355,-525.8048C368.5225,-513.0479 334.4846,-495.1847 306,-476.7006 304.5176,-475.7386 303.0281,-474.7544 301.5348,-473.7516"/>
<polygon fill="#000000" stroke="#000000" points="303.18,-470.6342 292.9631,-467.8295 299.201,-476.3933 303.18,-470.6342"/>
<text text-anchor="middle" x="352.5" y="-488.5006" font-family="Times,serif" font-size="14.00" fill="#000000">No</text>
</g>
<!-- monitor -->
<g id="node10" class="node">
<title>monitor</title>
<ellipse fill="none" stroke="#000000" cx="434" cy="-418.8305" rx="62.8651" ry="26.7407"/>
<text text-anchor="middle" x="434" y="-422.6305" font-family="Times,serif" font-size="14.00" fill="#000000">Check next</text>
<text text-anchor="middle" x="434" y="-407.6305" font-family="Times,serif" font-size="14.00" fill="#000000">observations</text>
</g>
<!-- trained&#45;&gt;monitor -->
<g id="edge5" class="edge">
<title>trained&#45;&gt;monitor</title>
<path fill="none" stroke="#000000" d="M434,-517.5962C434,-508.4094 434,-497.6847 434,-486.7549"/>
<polygon fill="#000000" stroke="#000000" points="437.5001,-486.698 434,-476.698 430.5001,-486.6981 437.5001,-486.698"/>
<text text-anchor="middle" x="445" y="-488.5006" font-family="Times,serif" font-size="14.00" fill="#000000">Yes</text>
</g>
<!-- end -->
<g id="node5" class="node">
<title>end</title>
<ellipse fill="none" stroke="#000000" cx="435" cy="-64.8701" rx="43.6818" ry="26.7407"/>
<text text-anchor="middle" x="435" y="-68.6701" font-family="Times,serif" font-size="14.00" fill="#000000">Iterate</text>
<text text-anchor="middle" x="435" y="-53.6701" font-family="Times,serif" font-size="14.00" fill="#000000">forward</text>
</g>
<!-- end&#45;&gt;while -->
<g id="edge17" class="edge">
<title>end&#45;&gt;while</title>
<path fill="none" stroke="#000000" d="M475.1601,-76.0814C529.0292,-92.3312 618,-123.9603 618,-155.6102 618,-544.5706 618,-544.5706 618,-544.5706 618,-565.1348 607.8221,-585.2637 596.4719,-601.3175"/>
<polygon fill="#000000" stroke="#000000" points="593.6703,-599.2197 590.4773,-609.3219 599.2733,-603.4158 593.6703,-599.2197"/>
</g>
<!-- stable -->
<g id="node7" class="node">
<title>stable</title>
<ellipse fill="none" stroke="#000000" cx="225" cy="-299.0904" rx="45.9239" ry="26.7407"/>
<text text-anchor="middle" x="225" y="-302.8904" font-family="Times,serif" font-size="14.00" fill="#000000">Test</text>
<text text-anchor="middle" x="225" y="-287.8904" font-family="Times,serif" font-size="14.00" fill="#000000">Stability</text>
</g>
<!-- clean&#45;&gt;stable -->
<g id="edge6" class="edge">
<title>clean&#45;&gt;stable</title>
<path fill="none" stroke="#000000" d="M230.9369,-400.6446C229.9442,-383.6651 228.4325,-357.8055 227.1829,-336.4312"/>
<polygon fill="#000000" stroke="#000000" points="230.6717,-336.1359 226.594,-326.3572 223.6837,-336.5445 230.6717,-336.1359"/>
</g>
<!-- is_stable -->
<g id="node8" class="node">
<title>is_stable</title>
<ellipse fill="none" stroke="#000000" cx="77" cy="-155.6102" rx="60.623" ry="26.7407"/>
<text text-anchor="middle" x="77" y="-159.4102" font-family="Times,serif" font-size="14.00" fill="#000000">Stable:</text>
<text text-anchor="middle" x="77" y="-144.4102" font-family="Times,serif" font-size="14.00" fill="#000000">init segment</text>
</g>
<!-- stable&#45;&gt;is_stable -->
<g id="edge7" class="edge">
<title>stable&#45;&gt;is_stable</title>
<path fill="none" stroke="#000000" d="M201.2212,-276.0378C176.4991,-252.0707 137.6175,-214.3765 109.9437,-187.5478"/>
<polygon fill="#000000" stroke="#000000" points="112.0727,-184.737 102.4566,-180.2893 107.2002,-189.7629 112.0727,-184.737"/>
<text text-anchor="middle" x="188" y="-223.6503" font-family="Times,serif" font-size="14.00" fill="#000000">Yes</text>
</g>
<!-- is_unstable -->
<g id="node9" class="node">
<title>is_unstable</title>
<ellipse fill="none" stroke="#000000" cx="225" cy="-155.6102" rx="69.0935" ry="26.7407"/>
<text text-anchor="middle" x="225" y="-159.4102" font-family="Times,serif" font-size="14.00" fill="#000000">Unstable:</text>
<text text-anchor="middle" x="225" y="-144.4102" font-family="Times,serif" font-size="14.00" fill="#000000">move forward</text>
</g>
<!-- stable&#45;&gt;is_unstable -->
<g id="edge8" class="edge">
<title>stable&#45;&gt;is_unstable</title>
<path fill="none" stroke="#000000" d="M225,-272.1029C225,-249.7994 225,-217.8875 225,-193.1018"/>
<polygon fill="#000000" stroke="#000000" points="228.5001,-192.9645 225,-182.9645 221.5001,-192.9646 228.5001,-192.9645"/>
<text text-anchor="middle" x="234.5" y="-223.6503" font-family="Times,serif" font-size="14.00" fill="#000000">No</text>
</g>
<!-- is_stable&#45;&gt;end -->
<g id="edge15" class="edge">
<title>is_stable&#45;&gt;end</title>
<path fill="none" stroke="#000000" d="M147,-120.7401C226.4028,-93.8185 322.7737,-78.4181 381.4583,-70.8537"/>
<polygon fill="#000000" stroke="#000000" points="382.1253,-74.2974 391.6095,-69.5751 381.2504,-67.3523 382.1253,-74.2974"/>
</g>
<!-- is_unstable&#45;&gt;end -->
<g id="edge16" class="edge">
<title>is_unstable&#45;&gt;end</title>
<path fill="none" stroke="#000000" d="M301.9973,-122.34C331.3491,-109.6572 363.8504,-95.6135 389.377,-84.5835"/>
<polygon fill="#000000" stroke="#000000" points="391.07,-87.6648 398.8614,-80.4854 388.2934,-81.239 391.07,-87.6648"/>
</g>
<!-- noise -->
<g id="node11" class="node">
<title>noise</title>
<ellipse fill="none" stroke="#000000" cx="374" cy="-227.3503" rx="55.7903" ry="18"/>
<text text-anchor="middle" x="374" y="-223.6503" font-family="Times,serif" font-size="14.00" fill="#000000">Delete noise</text>
</g>
<!-- monitor&#45;&gt;noise -->
<g id="edge9" class="edge">
<title>monitor&#45;&gt;noise</title>
<path fill="none" stroke="#000000" d="M389.805,-399.3341C379.8975,-392.7666 370.6559,-384.3851 365,-373.9605 344.7869,-336.705 354.6149,-286.0245 363.9955,-255.0564"/>
<polygon fill="#000000" stroke="#000000" points="367.3849,-255.9491 367.1156,-245.3577 360.7212,-253.8053 367.3849,-255.9491"/>
<text text-anchor="middle" x="388.5" y="-362.7605" font-family="Times,serif" font-size="14.00" fill="#000000">Noise</text>
<text text-anchor="middle" x="388.5" y="-347.7605" font-family="Times,serif" font-size="14.00" fill="#000000">detected</text>
</g>
<!-- change -->
<g id="node12" class="node">
<title>change</title>
<ellipse fill="none" stroke="#000000" cx="500" cy="-227.3503" rx="65.1077" ry="26.7407"/>
<text text-anchor="middle" x="500" y="-231.1503" font-family="Times,serif" font-size="14.00" fill="#000000">Change:</text>
<text text-anchor="middle" x="500" y="-216.1503" font-family="Times,serif" font-size="14.00" fill="#000000">new segment</text>
</g>
<!-- monitor&#45;&gt;change -->
<g id="edge10" class="edge">
<title>monitor&#45;&gt;change</title>
<path fill="none" stroke="#000000" d="M431.8995,-391.796C431.5248,-385.9199 431.1928,-379.7347 431,-373.9605 429.4591,-327.8152 427.7912,-311.5357 452,-272.2203 454.9158,-267.485 458.4618,-262.926 462.2922,-258.6479"/>
<polygon fill="#000000" stroke="#000000" points="464.9866,-260.8964 469.4193,-251.2734 459.9531,-256.0318 464.9866,-260.8964"/>
<text text-anchor="middle" x="458" y="-362.7605" font-family="Times,serif" font-size="14.00" fill="#000000">Above</text>
<text text-anchor="middle" x="458" y="-347.7605" font-family="Times,serif" font-size="14.00" fill="#000000">threshold</text>
</g>
<!-- nochange -->
<g id="node13" class="node">
<title>nochange</title>
<ellipse fill="none" stroke="#000000" cx="512" cy="-299.0904" rx="51.1914" ry="18"/>
<text text-anchor="middle" x="512" y="-295.3904" font-family="Times,serif" font-size="14.00" fill="#000000">No change</text>
</g>
<!-- monitor&#45;&gt;nochange -->
<g id="edge11" class="edge">
<title>monitor&#45;&gt;nochange</title>
<path fill="none" stroke="#000000" d="M468.1541,-396.204C475.8755,-389.7751 483.4278,-382.2421 489,-373.9605 498.3457,-360.0707 504.0218,-342.2241 507.3965,-327.4391"/>
<polygon fill="#000000" stroke="#000000" points="510.8923,-327.8133 509.4665,-317.3149 504.0342,-326.411 510.8923,-327.8133"/>
<text text-anchor="middle" x="529" y="-362.7605" font-family="Times,serif" font-size="14.00" fill="#000000">Within</text>
<text text-anchor="middle" x="529" y="-347.7605" font-family="Times,serif" font-size="14.00" fill="#000000">threshold</text>
</g>
<!-- noise&#45;&gt;end -->
<g id="edge12" class="edge">
<title>noise&#45;&gt;end</title>
<path fill="none" stroke="#000000" d="M387.0911,-192.4808C397.2478,-165.4273 411.2768,-128.0595 421.5285,-100.7528"/>
<polygon fill="#000000" stroke="#000000" points="424.8472,-101.8711 425.0853,-91.2789 418.2938,-99.4107 424.8472,-101.8711"/>
</g>
<!-- change&#45;&gt;end -->
<g id="edge13" class="edge">
<title>change&#45;&gt;end</title>
<path fill="none" stroke="#000000" d="M486.0515,-192.4834C475.1977,-165.3521 460.1934,-127.846 449.261,-100.5182"/>
<polygon fill="#000000" stroke="#000000" points="452.4977,-99.1857 445.5337,-91.2011 445.9984,-101.7858 452.4977,-99.1857"/>
</g>
<!-- nochange&#45;&gt;end -->
<g id="edge14" class="edge">
<title>nochange&#45;&gt;end</title>
<path fill="none" stroke="#000000" d="M566,-192.4802C547.5546,-148.7618 506,-112.5975 474.6041,-90.0668"/>
<polygon fill="#000000" stroke="#000000" points="476.2459,-86.9439 466.0458,-84.0785 472.2328,-92.6793 476.2459,-86.9439"/>
</g>
</g>
</svg>
