<?xml version="1.0" encoding="UTF-8" standalone="no"?>
<!DOCTYPE svg PUBLIC "-//W3C//DTD SVG 1.1//EN"
 "http://www.w3.org/Graphics/SVG/1.1/DTD/svg11.dtd">
<!-- Generated by graphviz version 2.38.0 (20140413.2041)
 -->
<!-- Title: G Pages: 1 -->
<svg width="687pt" height="670pt"
 viewBox="0.00 0.00 686.51 670.18" xmlns="http://www.w3.org/2000/svg" xmlns:xlink="http://www.w3.org/1999/xlink">
<g id="graph0" class="graph" transform="scale(1 1) rotate(0) translate(4 666.181)">
<title>G</title>
<polygon fill="white" stroke="none" points="-4,4 -4,-666.181 682.51,-666.181 682.51,4 -4,4"/>
<text text-anchor="middle" x="339.255" y="-22.8" font-family="Times,serif" font-size="14.00">Algorithm Flowchart:</text>
<text text-anchor="middle" x="339.255" y="-7.8" font-family="Times,serif" font-size="14.00">CCDCesque</text>
<g id="clust5" class="cluster"><title>cluster0</title>
<polygon fill="none" stroke="black" points="8,-120.74 8,-467.831 313,-467.831 313,-120.74 8,-120.74"/>
<text text-anchor="middle" x="160.5" y="-452.631" font-family="Times,serif" font-size="14.00">Historic Period</text>
</g>
<g id="clust6" class="cluster"><title>cluster1</title>
<polygon fill="none" stroke="black" points="321,-192.48 321,-476.701 596,-476.701 596,-192.48 321,-192.48"/>
<text text-anchor="middle" x="458.5" y="-461.501" font-family="Times,serif" font-size="14.00">Monitoring Period</text>
</g>
<!-- preprocess -->
<g id="node1" class="node"><title>preprocess</title>
<polygon fill="none" stroke="black" points="372,-653.311 292,-653.311 292,-617.311 372,-617.311 372,-653.311"/>
<text text-anchor="middle" x="332" y="-631.611" font-family="Times,serif" font-size="14.00">preprocess</text>
</g>
<!-- fit -->
<g id="node2" class="node"><title>fit</title>
<polygon fill="none" stroke="black" points="462,-653.311 408,-653.311 408,-617.311 462,-617.311 462,-653.311"/>
<text text-anchor="middle" x="435" y="-631.611" font-family="Times,serif" font-size="14.00">fit</text>
</g>
<!-- preprocess&#45;&gt;fit -->
<g id="edge1" class="edge"><title>preprocess&#45;&gt;fit</title>
<path fill="none" stroke="black" d="M372.234,-635.311C380.601,-635.311 388.968,-635.311 397.334,-635.311"/>
<polygon fill="black" stroke="black" points="397.54,-638.811 407.54,-635.311 397.54,-631.811 397.54,-638.811"/>
</g>
<!-- while -->
<g id="node3" class="node"><title>while</title>
<ellipse fill="none" stroke="black" cx="588" cy="-635.311" rx="90.5193" ry="26.7407"/>
<text text-anchor="middle" x="588" y="-639.111" font-family="Times,serif" font-size="14.00">while</text>
<text text-anchor="middle" x="588" y="-624.111" font-family="Times,serif" font-size="14.00">(has observations)</text>
</g>
<!-- fit&#45;&gt;while -->
<g id="edge2" class="edge"><title>fit&#45;&gt;while</title>
<path fill="none" stroke="black" d="M462.193,-635.311C470.462,-635.311 478.731,-635.311 486.999,-635.311"/>
<polygon fill="black" stroke="black" points="487.085,-638.811 497.085,-635.311 487.085,-631.811 487.085,-638.811"/>
</g>
<!-- trained -->
<g id="node4" class="node"><title>trained</title>
<ellipse fill="none" stroke="black" cx="451" cy="-544.571" rx="60.2083" ry="26.7407"/>
<text text-anchor="middle" x="451" y="-548.371" font-family="Times,serif" font-size="14.00">Segment</text>
<text text-anchor="middle" x="451" y="-533.371" font-family="Times,serif" font-size="14.00">initialized?</text>
</g>
<!-- while&#45;&gt;trained -->
<g id="edge3" class="edge"><title>while&#45;&gt;trained</title>
<path fill="none" stroke="black" d="M551.287,-610.53C533.36,-598.918 511.7,-584.889 493.105,-572.844"/>
<polygon fill="black" stroke="black" points="494.824,-569.787 484.528,-567.288 491.018,-575.662 494.824,-569.787"/>
</g>
<!-- clean -->
<g id="node6" class="node"><title>clean</title>
<polygon fill="none" stroke="black" points="297.5,-436.831 184.5,-436.831 184.5,-400.831 297.5,-400.831 297.5,-436.831"/>
<text text-anchor="middle" x="241" y="-415.131" font-family="Times,serif" font-size="14.00">Multitemp mask</text>
</g>
<!-- trained&#45;&gt;clean -->
<g id="edge4" class="edge"><title>trained&#45;&gt;clean</title>
<path fill="none" stroke="black" d="M409.213,-525.085C382.241,-512.584 346.764,-495.057 317,-476.701 315.297,-475.65 313.585,-474.572 311.868,-473.47"/>
<polygon fill="black" stroke="black" points="313.54,-470.38 303.266,-467.791 309.683,-476.221 313.54,-470.38"/>
<text text-anchor="middle" x="365.5" y="-488.501" font-family="Times,serif" font-size="14.00">No</text>
</g>
<!-- monitor -->
<g id="node10" class="node"><title>monitor</title>
<ellipse fill="none" stroke="black" cx="451" cy="-418.831" rx="65.5227" ry="26.7407"/>
<text text-anchor="middle" x="451" y="-422.631" font-family="Times,serif" font-size="14.00">Check next</text>
<text text-anchor="middle" x="451" y="-407.631" font-family="Times,serif" font-size="14.00">observations</text>
</g>
<!-- trained&#45;&gt;monitor -->
<g id="edge5" class="edge"><title>trained&#45;&gt;monitor</title>
<path fill="none" stroke="black" d="M451,-517.631C451,-508.476 451,-497.714 451,-486.74"/>
<polygon fill="black" stroke="black" points="454.5,-486.642 451,-476.642 447.5,-486.642 454.5,-486.642"/>
<text text-anchor="middle" x="463" y="-488.501" font-family="Times,serif" font-size="14.00">Yes</text>
</g>
<!-- end -->
<g id="node5" class="node"><title>end</title>
<ellipse fill="none" stroke="black" cx="443" cy="-64.8701" rx="45.011" ry="26.7407"/>
<text text-anchor="middle" x="443" y="-68.6701" font-family="Times,serif" font-size="14.00">Iterate</text>
<text text-anchor="middle" x="443" y="-53.6701" font-family="Times,serif" font-size="14.00">forward</text>
</g>
<!-- end&#45;&gt;while -->
<g id="edge17" class="edge"><title>end&#45;&gt;while</title>
<path fill="none" stroke="black" d="M488.425,-66.993C546.882,-71.1335 641,-88.1234 641,-154.61 641,-545.571 641,-545.571 641,-545.571 641,-565.86 630.662,-585.536 619.118,-601.185"/>
<polygon fill="black" stroke="black" points="616.058,-599.414 612.638,-609.442 621.565,-603.735 616.058,-599.414"/>
</g>
<!-- stable -->
<g id="node7" class="node"><title>stable</title>
<ellipse fill="none" stroke="black" cx="234" cy="-299.09" rx="48.1667" ry="26.7407"/>
<text text-anchor="middle" x="234" y="-302.89" font-family="Times,serif" font-size="14.00">Test</text>
<text text-anchor="middle" x="234" y="-287.89" font-family="Times,serif" font-size="14.00">Stability</text>
</g>
<!-- clean&#45;&gt;stable -->
<g id="edge6" class="edge"><title>clean&#45;&gt;stable</title>
<path fill="none" stroke="black" d="M239.982,-400.71C238.985,-383.938 237.434,-357.852 236.161,-336.443"/>
<polygon fill="black" stroke="black" points="239.65,-336.145 235.562,-326.37 232.662,-336.561 239.65,-336.145"/>
</g>
<!-- is_stable -->
<g id="node8" class="node"><title>is_stable</title>
<ellipse fill="none" stroke="black" cx="80" cy="-155.61" rx="64.1938" ry="26.7407"/>
<text text-anchor="middle" x="80" y="-159.41" font-family="Times,serif" font-size="14.00">Stable:</text>
<text text-anchor="middle" x="80" y="-144.41" font-family="Times,serif" font-size="14.00">init segment</text>
</g>
<!-- stable&#45;&gt;is_stable -->
<g id="edge7" class="edge"><title>stable&#45;&gt;is_stable</title>
<path fill="none" stroke="black" d="M209.598,-275.672C183.595,-251.783 142.261,-213.809 113.282,-187.186"/>
<polygon fill="black" stroke="black" points="115.561,-184.527 105.829,-180.339 110.825,-189.682 115.561,-184.527"/>
<text text-anchor="middle" x="196" y="-223.65" font-family="Times,serif" font-size="14.00">Yes</text>
</g>
<!-- is_unstable -->
<g id="node9" class="node"><title>is_unstable</title>
<ellipse fill="none" stroke="black" cx="234" cy="-155.61" rx="71.3357" ry="26.7407"/>
<text text-anchor="middle" x="234" y="-159.41" font-family="Times,serif" font-size="14.00">Unstable:</text>
<text text-anchor="middle" x="234" y="-144.41" font-family="Times,serif" font-size="14.00">move forward</text>
</g>
<!-- stable&#45;&gt;is_unstable -->
<g id="edge8" class="edge"><title>stable&#45;&gt;is_unstable</title>
<path fill="none" stroke="black" d="M234,-272.141C234,-249.944 234,-217.752 234,-192.984"/>
<polygon fill="black" stroke="black" points="237.5,-192.874 234,-182.874 230.5,-192.874 237.5,-192.874"/>
<text text-anchor="middle" x="243.5" y="-223.65" font-family="Times,serif" font-size="14.00">No</text>
</g>
<!-- is_stable&#45;&gt;end -->
<g id="edge15" class="edge"><title>is_stable&#45;&gt;end</title>
<path fill="none" stroke="black" d="M154,-120.74C233.643,-95.3656 329.58,-80.0084 388.421,-72.2316"/>
<polygon fill="black" stroke="black" points="389.139,-75.6679 398.607,-70.9123 388.24,-68.7259 389.139,-75.6679"/>
</g>
<!-- is_unstable&#45;&gt;end -->
<g id="edge16" class="edge"><title>is_unstable&#45;&gt;end</title>
<path fill="none" stroke="black" d="M312.907,-121.107C341.387,-109.014 372.57,-95.774 397.266,-85.2885"/>
<polygon fill="black" stroke="black" points="398.865,-88.412 406.702,-81.2821 396.129,-81.9687 398.865,-88.412"/>
</g>
<!-- noise -->
<g id="node11" class="node"><title>noise</title>
<ellipse fill="none" stroke="black" cx="389" cy="-227.35" rx="59.5901" ry="18"/>
<text text-anchor="middle" x="389" y="-223.65" font-family="Times,serif" font-size="14.00">Delete noise</text>
</g>
<!-- monitor&#45;&gt;noise -->
<g id="edge9" class="edge"><title>monitor&#45;&gt;noise</title>
<path fill="none" stroke="black" d="M404.083,-399.793C393.312,-393.332 383.21,-384.861 377,-373.96 355.905,-336.932 367.667,-285.791 378.245,-255.009"/>
<polygon fill="black" stroke="black" points="381.611,-255.994 381.738,-245.4 375.032,-253.603 381.611,-255.994"/>
<text text-anchor="middle" x="403" y="-362.76" font-family="Times,serif" font-size="14.00">Noise</text>
<text text-anchor="middle" x="403" y="-347.76" font-family="Times,serif" font-size="14.00">detected</text>
</g>
<!-- change -->
<g id="node12" class="node"><title>change</title>
<ellipse fill="none" stroke="black" cx="521" cy="-227.35" rx="67.3507" ry="26.7407"/>
<text text-anchor="middle" x="521" y="-231.15" font-family="Times,serif" font-size="14.00">Change:</text>
<text text-anchor="middle" x="521" y="-216.15" font-family="Times,serif" font-size="14.00">new segment</text>
</g>
<!-- monitor&#45;&gt;change -->
<g id="edge10" class="edge"><title>monitor&#45;&gt;change</title>
<path fill="none" stroke="black" d="M448.93,-391.864C448.543,-385.981 448.198,-379.759 448,-373.96 446.414,-327.529 446.473,-311.038 472,-272.22 475.098,-267.51 478.823,-262.984 482.819,-258.748"/>
<polygon fill="black" stroke="black" points="485.555,-260.966 490.227,-251.457 480.645,-255.977 485.555,-260.966"/>
<text text-anchor="middle" x="476.5" y="-362.76" font-family="Times,serif" font-size="14.00">Above</text>
<text text-anchor="middle" x="476.5" y="-347.76" font-family="Times,serif" font-size="14.00">threshold</text>
</g>
<!-- nochange -->
<g id="node13" class="node"><title>nochange</title>
<ellipse fill="none" stroke="black" cx="533" cy="-299.09" rx="51.9908" ry="18"/>
<text text-anchor="middle" x="533" y="-295.39" font-family="Times,serif" font-size="14.00">No change</text>
</g>
<!-- monitor&#45;&gt;nochange -->
<g id="edge11" class="edge"><title>monitor&#45;&gt;nochange</title>
<path fill="none" stroke="black" d="M486.94,-396.036C495.085,-389.743 503.069,-382.292 509,-373.96 518.817,-360.171 524.777,-342.143 528.303,-327.349"/>
<polygon fill="black" stroke="black" points="531.792,-327.765 530.459,-317.255 524.947,-326.303 531.792,-327.765"/>
<text text-anchor="middle" x="551.5" y="-362.76" font-family="Times,serif" font-size="14.00">Within</text>
<text text-anchor="middle" x="551.5" y="-347.76" font-family="Times,serif" font-size="14.00">threshold</text>
</g>
<!-- noise&#45;&gt;end -->
<g id="edge12" class="edge"><title>noise&#45;&gt;end</title>
<path fill="none" stroke="black" d="M400.396,-192.482C409.416,-165.677 421.973,-128.358 431.117,-101.184"/>
<polygon fill="black" stroke="black" points="434.56,-101.926 434.432,-91.3319 427.926,-99.6934 434.56,-101.926"/>
</g>
<!-- change&#45;&gt;end -->
<g id="edge13" class="edge"><title>change&#45;&gt;end</title>
<path fill="none" stroke="black" d="M504.547,-192.499C491.364,-165.377 472.947,-127.484 459.7,-100.229"/>
<polygon fill="black" stroke="black" points="462.692,-98.3794 455.173,-90.9155 456.397,-101.439 462.692,-98.3794"/>
</g>
<!-- nochange&#45;&gt;end -->
<g id="edge14" class="edge"><title>nochange&#45;&gt;end</title>
<path fill="none" stroke="black" d="M589,-192.48C567.745,-145.914 519.967,-109.882 484.83,-88.3676"/>
<polygon fill="black" stroke="black" points="486.574,-85.3324 476.193,-83.2131 482.987,-91.3434 486.574,-85.3324"/>
</g>
</g>
</svg>
