<?xml version="1.0" encoding="UTF-8" standalone="no"?>
<!DOCTYPE svg PUBLIC "-//W3C//DTD SVG 1.1//EN"
 "http://www.w3.org/Graphics/SVG/1.1/DTD/svg11.dtd">
<!-- Generated by graphviz version 2.38.0 (20140413.2041)
 -->
<!-- Title: G Pages: 1 -->
<svg width="643pt" height="670pt"
 viewBox="0.00 0.00 643.02 670.18" xmlns="http://www.w3.org/2000/svg" xmlns:xlink="http://www.w3.org/1999/xlink">
<g id="graph0" class="graph" transform="scale(1 1) rotate(0) translate(4 666.181)">
<title>G</title>
<polygon fill="white" stroke="none" points="-4,4 -4,-666.181 639.024,-666.181 639.024,4 -4,4"/>
<text text-anchor="middle" x="317.512" y="-22.8" font-family="Times,serif" font-size="14.00">Algorithm Flowchart:</text>
<text text-anchor="middle" x="317.512" y="-7.8" font-family="Times,serif" font-size="14.00">CCDCesque</text>
<g id="clust5" class="cluster"><title>cluster0</title>
<polygon fill="none" stroke="black" points="8,-120.74 8,-467.831 293,-467.831 293,-120.74 8,-120.74"/>
<text text-anchor="middle" x="150.5" y="-452.631" font-family="Times,serif" font-size="14.00">Historic Period</text>
</g>
<g id="clust6" class="cluster"><title>cluster1</title>
<polygon fill="none" stroke="black" points="301,-192.48 301,-476.701 558,-476.701 558,-192.48 301,-192.48"/>
<text text-anchor="middle" x="429.5" y="-461.501" font-family="Times,serif" font-size="14.00">Monitoring Period</text>
</g>
<!-- preprocess -->
<g id="node1" class="node"><title>preprocess</title>
<polygon fill="none" stroke="black" points="345,-653.311 271,-653.311 271,-617.311 345,-617.311 345,-653.311"/>
<text text-anchor="middle" x="308" y="-631.611" font-family="Times,serif" font-size="14.00">preprocess</text>
</g>
<!-- fit -->
<g id="node2" class="node"><title>fit</title>
<polygon fill="none" stroke="black" points="435,-653.311 381,-653.311 381,-617.311 435,-617.311 435,-653.311"/>
<text text-anchor="middle" x="408" y="-631.611" font-family="Times,serif" font-size="14.00">fit</text>
</g>
<!-- preprocess&#45;&gt;fit -->
<g id="edge1" class="edge"><title>preprocess&#45;&gt;fit</title>
<path fill="none" stroke="black" d="M345.109,-635.311C353.703,-635.311 362.296,-635.311 370.889,-635.311"/>
<polygon fill="black" stroke="black" points="370.977,-638.811 380.977,-635.311 370.977,-631.811 370.977,-638.811"/>
</g>
<!-- while -->
<g id="node3" class="node"><title>while</title>
<ellipse fill="none" stroke="black" cx="553" cy="-635.311" rx="82.0488" ry="26.7407"/>
<text text-anchor="middle" x="553" y="-639.111" font-family="Times,serif" font-size="14.00">while</text>
<text text-anchor="middle" x="553" y="-624.111" font-family="Times,serif" font-size="14.00">(has observations)</text>
</g>
<!-- fit&#45;&gt;while -->
<g id="edge2" class="edge"><title>fit&#45;&gt;while</title>
<path fill="none" stroke="black" d="M435.188,-635.311C443.585,-635.311 451.983,-635.311 460.38,-635.311"/>
<polygon fill="black" stroke="black" points="460.623,-638.811 470.623,-635.311 460.623,-631.811 460.623,-638.811"/>
</g>
<!-- trained -->
<g id="node4" class="node"><title>trained</title>
<ellipse fill="none" stroke="black" cx="425" cy="-544.571" rx="54.3945" ry="26.7407"/>
<text text-anchor="middle" x="425" y="-548.371" font-family="Times,serif" font-size="14.00">Segment</text>
<text text-anchor="middle" x="425" y="-533.371" font-family="Times,serif" font-size="14.00">initialized?</text>
</g>
<!-- while&#45;&gt;trained -->
<g id="edge3" class="edge"><title>while&#45;&gt;trained</title>
<path fill="none" stroke="black" d="M519.034,-610.763C502.104,-599.025 481.547,-584.774 463.976,-572.592"/>
<polygon fill="black" stroke="black" points="465.832,-569.62 455.62,-566.799 461.844,-575.373 465.832,-569.62"/>
</g>
<!-- clean -->
<g id="node6" class="node"><title>clean</title>
<polygon fill="none" stroke="black" points="279,-436.831 171,-436.831 171,-400.831 279,-400.831 279,-436.831"/>
<text text-anchor="middle" x="225" y="-415.131" font-family="Times,serif" font-size="14.00">Multitemp mask</text>
</g>
<!-- trained&#45;&gt;clean -->
<g id="edge4" class="edge"><title>trained&#45;&gt;clean</title>
<path fill="none" stroke="black" d="M386.14,-525.627C360.204,-513.087 325.72,-495.312 297,-476.701 295.512,-475.737 294.018,-474.749 292.52,-473.741"/>
<polygon fill="black" stroke="black" points="294.141,-470.606 283.93,-467.782 290.151,-476.358 294.141,-470.606"/>
<text text-anchor="middle" x="342.5" y="-488.501" font-family="Times,serif" font-size="14.00">No</text>
</g>
<!-- monitor -->
<g id="node10" class="node"><title>monitor</title>
<ellipse fill="none" stroke="black" cx="425" cy="-418.831" rx="60.2083" ry="26.7407"/>
<text text-anchor="middle" x="425" y="-422.631" font-family="Times,serif" font-size="14.00">Check next</text>
<text text-anchor="middle" x="425" y="-407.631" font-family="Times,serif" font-size="14.00">observations</text>
</g>
<!-- trained&#45;&gt;monitor -->
<g id="edge5" class="edge"><title>trained&#45;&gt;monitor</title>
<path fill="none" stroke="black" d="M425,-517.631C425,-508.476 425,-497.714 425,-486.74"/>
<polygon fill="black" stroke="black" points="428.5,-486.642 425,-476.642 421.5,-486.642 428.5,-486.642"/>
<text text-anchor="middle" x="436" y="-488.501" font-family="Times,serif" font-size="14.00">Yes</text>
</g>
<!-- end -->
<g id="node5" class="node"><title>end</title>
<ellipse fill="none" stroke="black" cx="415" cy="-64.8701" rx="41.9398" ry="26.7407"/>
<text text-anchor="middle" x="415" y="-68.6701" font-family="Times,serif" font-size="14.00">Iterate</text>
<text text-anchor="middle" x="415" y="-53.6701" font-family="Times,serif" font-size="14.00">forward</text>
</g>
<!-- end&#45;&gt;while -->
<g id="edge17" class="edge"><title>end&#45;&gt;while</title>
<path fill="none" stroke="black" d="M456.723,-67.6721C512.11,-72.5591 603,-90.366 603,-154.61 603,-545.571 603,-545.571 603,-545.571 603,-565.564 593.247,-585.206 582.356,-600.908"/>
<polygon fill="black" stroke="black" points="579.358,-599.076 576.243,-609.203 584.994,-603.229 579.358,-599.076"/>
</g>
<!-- stable -->
<g id="node7" class="node"><title>stable</title>
<ellipse fill="none" stroke="black" cx="219" cy="-299.09" rx="43.6818" ry="26.7407"/>
<text text-anchor="middle" x="219" y="-302.89" font-family="Times,serif" font-size="14.00">Test</text>
<text text-anchor="middle" x="219" y="-287.89" font-family="Times,serif" font-size="14.00">Stability</text>
</g>
<!-- clean&#45;&gt;stable -->
<g id="edge6" class="edge"><title>clean&#45;&gt;stable</title>
<path fill="none" stroke="black" d="M224.128,-400.71C223.273,-383.938 221.943,-357.852 220.853,-336.443"/>
<polygon fill="black" stroke="black" points="224.344,-336.179 220.339,-326.37 217.353,-336.536 224.344,-336.179"/>
</g>
<!-- is_stable -->
<g id="node8" class="node"><title>is_stable</title>
<ellipse fill="none" stroke="black" cx="75" cy="-155.61" rx="59.2941" ry="26.7407"/>
<text text-anchor="middle" x="75" y="-159.41" font-family="Times,serif" font-size="14.00">Stable:</text>
<text text-anchor="middle" x="75" y="-144.41" font-family="Times,serif" font-size="14.00">init segment</text>
</g>
<!-- stable&#45;&gt;is_stable -->
<g id="edge7" class="edge"><title>stable&#45;&gt;is_stable</title>
<path fill="none" stroke="black" d="M196.5,-275.984C172.351,-252.257 133.801,-214.382 106.611,-187.668"/>
<polygon fill="black" stroke="black" points="108.851,-184.962 99.2648,-180.45 103.945,-189.955 108.851,-184.962"/>
<text text-anchor="middle" x="183" y="-223.65" font-family="Times,serif" font-size="14.00">Yes</text>
</g>
<!-- is_unstable -->
<g id="node9" class="node"><title>is_unstable</title>
<ellipse fill="none" stroke="black" cx="219" cy="-155.61" rx="66.4361" ry="26.7407"/>
<text text-anchor="middle" x="219" y="-159.41" font-family="Times,serif" font-size="14.00">Unstable:</text>
<text text-anchor="middle" x="219" y="-144.41" font-family="Times,serif" font-size="14.00">move forward</text>
</g>
<!-- stable&#45;&gt;is_unstable -->
<g id="edge8" class="edge"><title>stable&#45;&gt;is_unstable</title>
<path fill="none" stroke="black" d="M219,-272.141C219,-249.944 219,-217.752 219,-192.984"/>
<polygon fill="black" stroke="black" points="222.5,-192.874 219,-182.874 215.5,-192.874 222.5,-192.874"/>
<text text-anchor="middle" x="227.5" y="-223.65" font-family="Times,serif" font-size="14.00">No</text>
</g>
<!-- is_stable&#45;&gt;end -->
<g id="edge15" class="edge"><title>is_stable&#45;&gt;end</title>
<path fill="none" stroke="black" d="M144,-120.74C218.498,-95.3855 308.713,-80.0028 363.966,-72.2178"/>
<polygon fill="black" stroke="black" points="364.772,-75.6399 374.2,-70.8067 363.816,-68.7056 364.772,-75.6399"/>
</g>
<!-- is_unstable&#45;&gt;end -->
<g id="edge16" class="edge"><title>is_unstable&#45;&gt;end</title>
<path fill="none" stroke="black" d="M292.756,-121.217C319.529,-109.095 348.877,-95.8078 372.105,-85.2909"/>
<polygon fill="black" stroke="black" points="373.689,-88.416 381.355,-81.103 370.802,-82.0391 373.689,-88.416"/>
</g>
<!-- noise -->
<g id="node11" class="node"><title>noise</title>
<ellipse fill="none" stroke="black" cx="364" cy="-227.35" rx="54.6905" ry="18"/>
<text text-anchor="middle" x="364" y="-223.65" font-family="Times,serif" font-size="14.00">Delete noise</text>
</g>
<!-- monitor&#45;&gt;noise -->
<g id="edge9" class="edge"><title>monitor&#45;&gt;noise</title>
<path fill="none" stroke="black" d="M382.514,-399.522C372.352,-393.002 362.781,-384.57 357,-373.96 336.655,-336.623 346.029,-285.578 354.877,-254.899"/>
<polygon fill="black" stroke="black" points="358.227,-255.912 357.813,-245.325 351.535,-253.859 358.227,-255.912"/>
<text text-anchor="middle" x="380" y="-362.76" font-family="Times,serif" font-size="14.00">Noise</text>
<text text-anchor="middle" x="380" y="-347.76" font-family="Times,serif" font-size="14.00">detected</text>
</g>
<!-- change -->
<g id="node12" class="node"><title>change</title>
<ellipse fill="none" stroke="black" cx="487" cy="-227.35" rx="62.8651" ry="26.7407"/>
<text text-anchor="middle" x="487" y="-231.15" font-family="Times,serif" font-size="14.00">Change:</text>
<text text-anchor="middle" x="487" y="-216.15" font-family="Times,serif" font-size="14.00">new segment</text>
</g>
<!-- monitor&#45;&gt;change -->
<g id="edge10" class="edge"><title>monitor&#45;&gt;change</title>
<path fill="none" stroke="black" d="M421.978,-391.903C419.684,-361.134 420.006,-309.332 442,-272.22 444.781,-267.527 448.193,-262.994 451.882,-258.737"/>
<polygon fill="black" stroke="black" points="454.472,-261.092 458.747,-251.398 449.36,-256.31 454.472,-261.092"/>
<text text-anchor="middle" x="446.5" y="-362.76" font-family="Times,serif" font-size="14.00">Above</text>
<text text-anchor="middle" x="446.5" y="-347.76" font-family="Times,serif" font-size="14.00">threshold</text>
</g>
<!-- nochange -->
<g id="node13" class="node"><title>nochange</title>
<ellipse fill="none" stroke="black" cx="500" cy="-299.09" rx="48.9926" ry="18"/>
<text text-anchor="middle" x="500" y="-295.39" font-family="Times,serif" font-size="14.00">No change</text>
</g>
<!-- monitor&#45;&gt;nochange -->
<g id="edge11" class="edge"><title>monitor&#45;&gt;nochange</title>
<path fill="none" stroke="black" d="M456.719,-395.996C464.207,-389.612 471.579,-382.129 477,-373.96 486.324,-359.912 492.034,-341.879 495.432,-327.147"/>
<polygon fill="black" stroke="black" points="498.911,-327.61 497.517,-317.107 492.057,-326.187 498.911,-327.61"/>
<text text-anchor="middle" x="515.5" y="-362.76" font-family="Times,serif" font-size="14.00">Within</text>
<text text-anchor="middle" x="515.5" y="-347.76" font-family="Times,serif" font-size="14.00">threshold</text>
</g>
<!-- noise&#45;&gt;end -->
<g id="edge12" class="edge"><title>noise&#45;&gt;end</title>
<path fill="none" stroke="black" d="M374.763,-192.482C383.282,-165.677 395.141,-128.358 403.777,-101.184"/>
<polygon fill="black" stroke="black" points="407.215,-101.922 406.908,-91.3319 400.544,-99.8021 407.215,-101.922"/>
</g>
<!-- change&#45;&gt;end -->
<g id="edge13" class="edge"><title>change&#45;&gt;end</title>
<path fill="none" stroke="black" d="M471.813,-192.499C459.644,-165.377 442.643,-127.484 430.415,-100.229"/>
<polygon fill="black" stroke="black" points="433.524,-98.6066 426.237,-90.9155 427.137,-101.472 433.524,-98.6066"/>
</g>
<!-- nochange&#45;&gt;end -->
<g id="edge14" class="edge"><title>nochange&#45;&gt;end</title>
<path fill="none" stroke="black" d="M551,-192.48C531.321,-147.273 486.662,-110.915 453.866,-88.9552"/>
<polygon fill="black" stroke="black" points="455.671,-85.9538 445.385,-83.4169 451.844,-91.8149 455.671,-85.9538"/>
</g>
</g>
</svg>
