<?xml version="1.0" encoding="UTF-8" standalone="no"?>
<!DOCTYPE svg PUBLIC "-//W3C//DTD SVG 1.1//EN"
 "http://www.w3.org/Graphics/SVG/1.1/DTD/svg11.dtd">
<!-- Generated by graphviz version 2.38.0 (20140413.2041)
 -->
<!-- Title: G Pages: 1 -->
<svg width="655pt" height="717pt"
 viewBox="0.00 0.00 654.61 716.62" xmlns="http://www.w3.org/2000/svg" xmlns:xlink="http://www.w3.org/1999/xlink">
<g id="graph0" class="graph" transform="scale(1 1) rotate(0) translate(4 712.619)">
<title>G</title>
<polygon fill="white" stroke="none" points="-4,4 -4,-712.619 650.609,-712.619 650.609,4 -4,4"/>
<text text-anchor="middle" x="323.304" y="-25" font-family="Times,serif" font-size="14.00">Algorithm Flowchart:</text>
<text text-anchor="middle" x="323.304" y="-8.2" font-family="Times,serif" font-size="14.00">CCDCesque</text>
<g id="clust5" class="cluster"><title>cluster0</title>
<polygon fill="none" stroke="black" points="8,-129.431 8,-499.741 296,-499.741 296,-129.431 8,-129.431"/>
<text text-anchor="middle" x="152" y="-483.141" font-family="Times,serif" font-size="14.00">Historic Period</text>
</g>
<g id="clust6" class="cluster"><title>cluster1</title>
<polygon fill="none" stroke="black" points="304,-206.263 304,-511.156 569,-511.156 569,-206.263 304,-206.263"/>
<text text-anchor="middle" x="436.5" y="-494.556" font-family="Times,serif" font-size="14.00">Monitoring Period</text>
</g>
<!-- preprocess -->
<g id="node1" class="node"><title>preprocess</title>
<polygon fill="none" stroke="black" points="354.854,-697.203 279.146,-697.203 279.146,-661.203 354.854,-661.203 354.854,-697.203"/>
<text text-anchor="middle" x="317" y="-675.003" font-family="Times,serif" font-size="14.00">preprocess</text>
</g>
<!-- fit -->
<g id="node2" class="node"><title>fit</title>
<polygon fill="none" stroke="black" points="444,-697.203 390,-697.203 390,-661.203 444,-661.203 444,-697.203"/>
<text text-anchor="middle" x="417" y="-675.003" font-family="Times,serif" font-size="14.00">fit</text>
</g>
<!-- preprocess&#45;&gt;fit -->
<g id="edge1" class="edge"><title>preprocess&#45;&gt;fit</title>
<path fill="none" stroke="black" d="M354.891,-679.203C363.17,-679.203 371.449,-679.203 379.728,-679.203"/>
<polygon fill="black" stroke="black" points="379.827,-682.703 389.827,-679.203 379.827,-675.703 379.827,-682.703"/>
</g>
<!-- while -->
<g id="node3" class="node"><title>while</title>
<ellipse fill="none" stroke="black" cx="563" cy="-679.203" rx="83.7176" ry="29.3315"/>
<text text-anchor="middle" x="563" y="-683.403" font-family="Times,serif" font-size="14.00">while</text>
<text text-anchor="middle" x="563" y="-666.603" font-family="Times,serif" font-size="14.00">(has observations)</text>
</g>
<!-- fit&#45;&gt;while -->
<g id="edge2" class="edge"><title>fit&#45;&gt;while</title>
<path fill="none" stroke="black" d="M444.09,-679.203C452.345,-679.203 460.601,-679.203 468.857,-679.203"/>
<polygon fill="black" stroke="black" points="468.927,-682.703 478.927,-679.203 468.927,-675.703 468.927,-682.703"/>
</g>
<!-- trained -->
<g id="node4" class="node"><title>trained</title>
<ellipse fill="none" stroke="black" cx="434" cy="-583.372" rx="55.0951" ry="29.3315"/>
<text text-anchor="middle" x="434" y="-587.572" font-family="Times,serif" font-size="14.00">Segment</text>
<text text-anchor="middle" x="434" y="-570.772" font-family="Times,serif" font-size="14.00">initialized?</text>
</g>
<!-- while&#45;&gt;trained -->
<g id="edge3" class="edge"><title>while&#45;&gt;trained</title>
<path fill="none" stroke="black" d="M527.409,-652.315C510.874,-640.288 491.143,-625.936 474.085,-613.529"/>
<polygon fill="black" stroke="black" points="476.097,-610.664 465.951,-607.612 471.979,-616.325 476.097,-610.664"/>
</g>
<!-- clean -->
<g id="node6" class="node"><title>clean</title>
<polygon fill="none" stroke="black" points="282.162,-466.941 173.838,-466.941 173.838,-430.941 282.162,-430.941 282.162,-466.941"/>
<text text-anchor="middle" x="228" y="-444.741" font-family="Times,serif" font-size="14.00">Multitemp mask</text>
</g>
<!-- trained&#45;&gt;clean -->
<g id="edge4" class="edge"><title>trained&#45;&gt;clean</title>
<path fill="none" stroke="black" d="M393.111,-563.513C365.871,-550.265 329.75,-531.359 300,-511.156 297.301,-509.323 294.586,-507.406 291.876,-505.428"/>
<polygon fill="black" stroke="black" points="293.869,-502.548 283.772,-499.337 289.663,-508.143 293.869,-502.548"/>
<text text-anchor="middle" x="347.553" y="-523.356" font-family="Times,serif" font-size="14.00">No</text>
</g>
<!-- monitor -->
<g id="node10" class="node"><title>monitor</title>
<ellipse fill="none" stroke="black" cx="434" cy="-448.941" rx="61.1978" ry="29.3315"/>
<text text-anchor="middle" x="434" y="-453.141" font-family="Times,serif" font-size="14.00">Check next</text>
<text text-anchor="middle" x="434" y="-436.341" font-family="Times,serif" font-size="14.00">observations</text>
</g>
<!-- trained&#45;&gt;monitor -->
<g id="edge5" class="edge"><title>trained&#45;&gt;monitor</title>
<path fill="none" stroke="black" d="M434,-553.636C434,-543.963 434,-532.697 434,-521.228"/>
<polygon fill="black" stroke="black" points="437.5,-521.131 434,-511.131 430.5,-521.131 437.5,-521.131"/>
<text text-anchor="middle" x="444.883" y="-523.356" font-family="Times,serif" font-size="14.00">Yes</text>
</g>
<!-- end -->
<g id="node5" class="node"><title>end</title>
<ellipse fill="none" stroke="black" cx="423" cy="-71.0156" rx="42.7818" ry="29.3315"/>
<text text-anchor="middle" x="423" y="-75.2156" font-family="Times,serif" font-size="14.00">Iterate</text>
<text text-anchor="middle" x="423" y="-58.4156" font-family="Times,serif" font-size="14.00">forward</text>
</g>
<!-- end&#45;&gt;while -->
<g id="edge17" class="edge"><title>end&#45;&gt;while</title>
<path fill="none" stroke="black" d="M465.389,-74.5249C521.659,-80.4095 614,-100.085 614,-165.847 614,-584.372 614,-584.372 614,-584.372 614,-605.213 604.167,-625.843 593.137,-642.428"/>
<polygon fill="black" stroke="black" points="590.199,-640.521 587.305,-650.712 595.923,-644.55 590.199,-640.521"/>
</g>
<!-- stable -->
<g id="node7" class="node"><title>stable</title>
<ellipse fill="none" stroke="black" cx="221" cy="-320.509" rx="44.7325" ry="29.3315"/>
<text text-anchor="middle" x="221" y="-324.709" font-family="Times,serif" font-size="14.00">Test</text>
<text text-anchor="middle" x="221" y="-307.909" font-family="Times,serif" font-size="14.00">Stability</text>
</g>
<!-- clean&#45;&gt;stable -->
<g id="edge6" class="edge"><title>clean&#45;&gt;stable</title>
<path fill="none" stroke="black" d="M227.056,-430.89C226.061,-412.923 224.461,-384.017 223.155,-360.433"/>
<polygon fill="black" stroke="black" points="226.645,-360.156 222.598,-350.364 219.656,-360.543 226.645,-360.156"/>
</g>
<!-- is_stable -->
<g id="node8" class="node"><title>is_stable</title>
<ellipse fill="none" stroke="black" cx="76" cy="-166.847" rx="59.9632" ry="29.3315"/>
<text text-anchor="middle" x="76" y="-171.047" font-family="Times,serif" font-size="14.00">Stable:</text>
<text text-anchor="middle" x="76" y="-154.247" font-family="Times,serif" font-size="14.00">init segment</text>
</g>
<!-- stable&#45;&gt;is_stable -->
<g id="edge7" class="edge"><title>stable&#45;&gt;is_stable</title>
<path fill="none" stroke="black" d="M197.703,-295.142C173.305,-269.623 134.831,-229.381 107.683,-200.986"/>
<polygon fill="black" stroke="black" points="110.135,-198.486 100.695,-193.676 105.076,-203.323 110.135,-198.486"/>
<text text-anchor="middle" x="184.883" y="-239.478" font-family="Times,serif" font-size="14.00">Yes</text>
</g>
<!-- is_unstable -->
<g id="node9" class="node"><title>is_unstable</title>
<ellipse fill="none" stroke="black" cx="221" cy="-166.847" rx="67.2206" ry="29.3315"/>
<text text-anchor="middle" x="221" y="-171.047" font-family="Times,serif" font-size="14.00">Unstable:</text>
<text text-anchor="middle" x="221" y="-154.247" font-family="Times,serif" font-size="14.00">move forward</text>
</g>
<!-- stable&#45;&gt;is_unstable -->
<g id="edge8" class="edge"><title>stable&#45;&gt;is_unstable</title>
<path fill="none" stroke="black" d="M221,-290.983C221,-267.121 221,-232.855 221,-206.526"/>
<polygon fill="black" stroke="black" points="224.5,-206.503 221,-196.503 217.5,-206.503 224.5,-206.503"/>
<text text-anchor="middle" x="229.553" y="-239.478" font-family="Times,serif" font-size="14.00">No</text>
</g>
<!-- is_stable&#45;&gt;end -->
<g id="edge15" class="edge"><title>is_stable&#45;&gt;end</title>
<path fill="none" stroke="black" d="M145,-129.431C221.198,-102.079 314.078,-86.1879 370.854,-78.312"/>
<polygon fill="black" stroke="black" points="371.584,-81.7452 381.023,-76.9337 370.643,-74.8086 371.584,-81.7452"/>
</g>
<!-- is_unstable&#45;&gt;end -->
<g id="edge16" class="edge"><title>is_unstable&#45;&gt;end</title>
<path fill="none" stroke="black" d="M295.938,-131.038C323.902,-118.048 354.728,-103.729 379.014,-92.4475"/>
<polygon fill="black" stroke="black" points="380.498,-95.6174 388.093,-88.2303 377.549,-89.2689 380.498,-95.6174"/>
</g>
<!-- noise -->
<g id="node11" class="node"><title>noise</title>
<ellipse fill="none" stroke="black" cx="371" cy="-243.678" rx="59.065" ry="18"/>
<text text-anchor="middle" x="371" y="-239.478" font-family="Times,serif" font-size="14.00">Delete noise</text>
</g>
<!-- monitor&#45;&gt;noise -->
<g id="edge9" class="edge"><title>monitor&#45;&gt;noise</title>
<path fill="none" stroke="black" d="M390.712,-427.934C380.588,-421.07 371.095,-412.325 365.36,-401.525 343.568,-360.482 353.314,-304.515 362.249,-271.723"/>
<polygon fill="black" stroke="black" points="365.663,-272.517 365.081,-261.938 358.939,-270.571 365.663,-272.517"/>
<text text-anchor="middle" x="388.32" y="-388.925" font-family="Times,serif" font-size="14.00">Noise</text>
<text text-anchor="middle" x="388.32" y="-372.125" font-family="Times,serif" font-size="14.00">detected</text>
</g>
<!-- change -->
<g id="node12" class="node"><title>change</title>
<ellipse fill="none" stroke="black" cx="498" cy="-243.678" rx="63.0393" ry="29.3315"/>
<text text-anchor="middle" x="498" y="-247.878" font-family="Times,serif" font-size="14.00">Change:</text>
<text text-anchor="middle" x="498" y="-231.078" font-family="Times,serif" font-size="14.00">new segment</text>
</g>
<!-- monitor&#45;&gt;change -->
<g id="edge10" class="edge"><title>monitor&#45;&gt;change</title>
<path fill="none" stroke="black" d="M429.261,-419.507C425.223,-386.374 423.212,-331.072 446,-291.094 448.994,-285.841 452.801,-280.87 456.989,-276.271"/>
<polygon fill="black" stroke="black" points="459.75,-278.458 464.32,-268.899 454.787,-273.522 459.75,-278.458"/>
<text text-anchor="middle" x="453.051" y="-388.925" font-family="Times,serif" font-size="14.00">Above</text>
<text text-anchor="middle" x="453.051" y="-372.125" font-family="Times,serif" font-size="14.00">threshold</text>
</g>
<!-- nochange -->
<g id="node13" class="node"><title>nochange</title>
<ellipse fill="none" stroke="black" cx="508" cy="-320.509" rx="52.6924" ry="18"/>
<text text-anchor="middle" x="508" y="-316.309" font-family="Times,serif" font-size="14.00">No change</text>
</g>
<!-- monitor&#45;&gt;nochange -->
<g id="edge11" class="edge"><title>monitor&#45;&gt;nochange</title>
<path fill="none" stroke="black" d="M467.407,-424.089C474.745,-417.499 481.851,-409.846 487,-401.525 496.919,-385.495 502.187,-364.87 504.966,-348.574"/>
<polygon fill="black" stroke="black" points="508.442,-348.99 506.456,-338.583 501.519,-347.957 508.442,-348.99"/>
<text text-anchor="middle" x="526.051" y="-388.925" font-family="Times,serif" font-size="14.00">Within</text>
<text text-anchor="middle" x="526.051" y="-372.125" font-family="Times,serif" font-size="14.00">threshold</text>
</g>
<!-- noise&#45;&gt;end -->
<g id="edge12" class="edge"><title>noise&#45;&gt;end</title>
<path fill="none" stroke="black" d="M382.046,-206.426C390.724,-177.944 402.77,-138.411 411.55,-109.594"/>
<polygon fill="black" stroke="black" points="414.944,-110.464 414.511,-99.8779 408.248,-108.424 414.944,-110.464"/>
</g>
<!-- change&#45;&gt;end -->
<g id="edge13" class="edge"><title>change&#45;&gt;end</title>
<path fill="none" stroke="black" d="M482.19,-206.702C469.544,-177.928 451.885,-137.743 439.15,-108.766"/>
<polygon fill="black" stroke="black" points="442.258,-107.138 435.031,-99.3912 435.85,-109.954 442.258,-107.138"/>
</g>
<!-- nochange&#45;&gt;end -->
<g id="edge14" class="edge"><title>nochange&#45;&gt;end</title>
<path fill="none" stroke="black" d="M562,-206.263C542.026,-159.203 496.581,-120.601 463.065,-97.0625"/>
<polygon fill="black" stroke="black" points="464.619,-93.8848 454.392,-91.1178 460.661,-99.6586 464.619,-93.8848"/>
</g>
</g>
</svg>
