<?xml version="1.0" encoding="UTF-8" standalone="no"?>
<!DOCTYPE svg PUBLIC "-//W3C//DTD SVG 1.1//EN"
 "http://www.w3.org/Graphics/SVG/1.1/DTD/svg11.dtd">
<!-- Generated by graphviz version 2.26.3 (20100126.1600)
 -->
<!-- Title: G Pages: 1 -->
<svg width="1161pt" height="694pt"
 viewBox="0.00 0.00 1161.00 694.00" xmlns="http://www.w3.org/2000/svg" xmlns:xlink="http://www.w3.org/1999/xlink">
<g id="graph1" class="graph" transform="scale(1 1) rotate(0) translate(4 690)">
<title>G</title>
<polygon fill="white" stroke="white" points="-4,5 -4,-690 1158,-690 1158,5 -4,5"/>
<text text-anchor="middle" x="576.5" y="-27.4" font-family="Times Roman,serif" font-size="14.00">Algorithm Flowchart:</text>
<text text-anchor="middle" x="576.5" y="-9.4" font-family="Times Roman,serif" font-size="14.00">CCDCesque</text>
<g id="graph6" class="cluster"><title>cluster0</title>
<polygon fill="none" stroke="black" points="8,-136 8,-380 348,-380 348,-136 8,-136"/>
<text text-anchor="middle" x="178" y="-363.4" font-family="Times Roman,serif" font-size="14.00">Historic Period</text>
</g>
<g id="graph7" class="cluster"><title>cluster1</title>
<polygon fill="none" stroke="black" points="356,-136 356,-240 836,-240 836,-136 356,-136"/>
<text text-anchor="middle" x="596" y="-223.4" font-family="Times Roman,serif" font-size="14.00">Monitoring Period</text>
</g>
<!-- preprocess -->
<g id="node1" class="node"><title>preprocess</title>
<polygon fill="none" stroke="black" points="561,-673 471,-673 471,-637 561,-637 561,-673"/>
<text text-anchor="middle" x="516" y="-651.4" font-family="Times Roman,serif" font-size="14.00">preprocess</text>
</g>
<!-- fit -->
<g id="node2" class="node"><title>fit</title>
<polygon fill="none" stroke="black" points="651,-673 597,-673 597,-637 651,-637 651,-673"/>
<text text-anchor="middle" x="624" y="-651.4" font-family="Times Roman,serif" font-size="14.00">fit</text>
</g>
<!-- preprocess&#45;&gt;fit -->
<g id="edge6" class="edge"><title>preprocess&#45;&gt;fit</title>
<path fill="none" stroke="black" d="M561.141,-655C569.73,-655 578.319,-655 586.907,-655"/>
<polygon fill="black" stroke="black" points="586.99,-658.5 596.99,-655 586.99,-651.5 586.99,-658.5"/>
</g>
<!-- while -->
<g id="node3" class="node"><title>while</title>
<ellipse fill="none" stroke="black" cx="788" cy="-655" rx="101.116" ry="31.1127"/>
<text text-anchor="middle" x="788" y="-660.4" font-family="Times Roman,serif" font-size="14.00">while</text>
<text text-anchor="middle" x="788" y="-642.4" font-family="Times Roman,serif" font-size="14.00">(has observations)</text>
</g>
<!-- fit&#45;&gt;while -->
<g id="edge7" class="edge"><title>fit&#45;&gt;while</title>
<path fill="none" stroke="black" d="M651.227,-655C659.646,-655 668.066,-655 676.485,-655"/>
<polygon fill="black" stroke="black" points="676.756,-658.5 686.756,-655 676.756,-651.5 676.756,-658.5"/>
</g>
<!-- trained -->
<g id="node4" class="node"><title>trained</title>
<ellipse fill="none" stroke="black" cx="606" cy="-555" rx="63.8479" ry="31.1127"/>
<text text-anchor="middle" x="606" y="-560.4" font-family="Times Roman,serif" font-size="14.00">Segment</text>
<text text-anchor="middle" x="606" y="-542.4" font-family="Times Roman,serif" font-size="14.00">initialized?</text>
</g>
<!-- while&#45;&gt;trained -->
<g id="edge8" class="edge"><title>while&#45;&gt;trained</title>
<path fill="none" stroke="black" d="M738.268,-627.675C713.24,-613.923 682.929,-597.269 657.641,-583.374"/>
<polygon fill="black" stroke="black" points="659.02,-580.138 648.57,-578.39 655.649,-586.273 659.02,-580.138"/>
</g>
<!-- clean -->
<g id="node7" class="node"><title>clean</title>
<polygon fill="none" stroke="black" points="467,-457 341,-457 341,-421 467,-421 467,-457"/>
<text text-anchor="middle" x="404" y="-435.4" font-family="Times Roman,serif" font-size="14.00">Multitemp mask</text>
</g>
<!-- trained&#45;&gt;clean -->
<g id="edge10" class="edge"><title>trained&#45;&gt;clean</title>
<path fill="none" stroke="black" d="M564.635,-531.246C529.457,-511.045 479.243,-482.209 444.356,-462.175"/>
<polygon fill="black" stroke="black" points="445.808,-458.972 435.393,-457.028 442.322,-465.043 445.808,-458.972"/>
<text text-anchor="middle" x="526.5" y="-493.4" font-family="Times Roman,serif" font-size="14.00">No</text>
</g>
<!-- monitor -->
<g id="node12" class="node"><title>monitor</title>
<ellipse fill="none" stroke="black" cx="606" cy="-439" rx="73.0388" ry="31.1127"/>
<text text-anchor="middle" x="606" y="-444.4" font-family="Times Roman,serif" font-size="14.00">Check next</text>
<text text-anchor="middle" x="606" y="-426.4" font-family="Times Roman,serif" font-size="14.00">observations</text>
</g>
<!-- trained&#45;&gt;monitor -->
<g id="edge12" class="edge"><title>trained&#45;&gt;monitor</title>
<path fill="none" stroke="black" d="M606,-523.914C606,-510.521 606,-494.669 606,-480.308"/>
<polygon fill="black" stroke="black" points="609.5,-480.172 606,-470.172 602.5,-480.172 609.5,-480.172"/>
<text text-anchor="middle" x="617.5" y="-493.4" font-family="Times Roman,serif" font-size="14.00">Yes</text>
</g>
<!-- end -->
<g id="node5" class="node"><title>end</title>
<ellipse fill="none" stroke="black" cx="503" cy="-75" rx="50.2046" ry="31.1127"/>
<text text-anchor="middle" x="503" y="-80.4" font-family="Times Roman,serif" font-size="14.00">Iterate</text>
<text text-anchor="middle" x="503" y="-62.4" font-family="Times Roman,serif" font-size="14.00">forward</text>
</g>
<!-- end&#45;&gt;while -->
<g id="edge38" class="edge"><title>end&#45;&gt;while</title>
<path fill="none" stroke="black" d="M552.834,-78.209C635.6,-84.4697 796.609,-100.891 840,-136 854.565,-147.785 856,-156.265 856,-175 856,-555 856,-555 856,-555 856,-578.486 843.015,-600.542 828.394,-617.932"/>
<polygon fill="black" stroke="black" points="825.624,-615.78 821.602,-625.582 830.858,-620.428 825.624,-615.78"/>
</g>
<!-- Training -->
<g id="node6" class="node"><title>Training</title>
<ellipse fill="none" stroke="black" cx="957" cy="-655" rx="50.2046" ry="18.3848"/>
<text text-anchor="middle" x="957" y="-651.4" font-family="Times Roman,serif" font-size="14.00">Training</text>
</g>
<!-- stable -->
<g id="node8" class="node"><title>stable</title>
<ellipse fill="none" stroke="black" cx="260" cy="-315" rx="51.8276" ry="31.1127"/>
<text text-anchor="middle" x="260" y="-320.4" font-family="Times Roman,serif" font-size="14.00">Test</text>
<text text-anchor="middle" x="260" y="-302.4" font-family="Times Roman,serif" font-size="14.00">Stability</text>
</g>
<!-- clean&#45;&gt;stable -->
<g id="edge15" class="edge"><title>clean&#45;&gt;stable</title>
<path fill="none" stroke="black" d="M372.802,-420.956C355.277,-410.135 333.483,-395.493 316,-380 306.236,-371.347 296.598,-361.007 288.143,-351.146"/>
<polygon fill="black" stroke="black" points="290.742,-348.798 281.636,-343.383 285.377,-353.295 290.742,-348.798"/>
</g>
<!-- is_stable -->
<g id="node9" class="node"><title>is_stable</title>
<ellipse fill="none" stroke="black" cx="89" cy="-175" rx="72.832" ry="31.1127"/>
<text text-anchor="middle" x="89" y="-180.4" font-family="Times Roman,serif" font-size="14.00">Stable:</text>
<text text-anchor="middle" x="89" y="-162.4" font-family="Times Roman,serif" font-size="14.00">init segment</text>
</g>
<!-- stable&#45;&gt;is_stable -->
<g id="edge17" class="edge"><title>stable&#45;&gt;is_stable</title>
<path fill="none" stroke="black" d="M229.033,-289.647C201.468,-267.079 160.924,-233.885 130.546,-209.015"/>
<polygon fill="black" stroke="black" points="132.618,-206.187 122.663,-202.56 128.183,-211.603 132.618,-206.187"/>
<text text-anchor="middle" x="210.5" y="-253.4" font-family="Times Roman,serif" font-size="14.00">Yes</text>
</g>
<!-- is_unstable -->
<g id="node10" class="node"><title>is_unstable</title>
<ellipse fill="none" stroke="black" cx="260" cy="-175" rx="79.9031" ry="31.1127"/>
<text text-anchor="middle" x="260" y="-180.4" font-family="Times Roman,serif" font-size="14.00">Unstable:</text>
<text text-anchor="middle" x="260" y="-162.4" font-family="Times Roman,serif" font-size="14.00">move forward</text>
</g>
<!-- stable&#45;&gt;is_unstable -->
<g id="edge19" class="edge"><title>stable&#45;&gt;is_unstable</title>
<path fill="none" stroke="black" d="M253.431,-284.012C252.419,-278.06 251.533,-271.857 251,-266 249.526,-249.814 250.67,-232.021 252.574,-216.494"/>
<polygon fill="black" stroke="black" points="256.101,-216.538 253.991,-206.155 249.166,-215.587 256.101,-216.538"/>
<text text-anchor="middle" x="260.5" y="-253.4" font-family="Times Roman,serif" font-size="14.00">No</text>
</g>
<!-- is_stable&#45;&gt;end -->
<g id="edge34" class="edge"><title>is_stable&#45;&gt;end</title>
<path fill="none" stroke="black" d="M171,-136C263.815,-105.979 376.293,-89.2089 443.624,-81.1498"/>
<polygon fill="black" stroke="black" points="444.103,-84.6177 453.627,-79.9769 443.288,-77.6653 444.103,-84.6177"/>
</g>
<!-- is_unstable&#45;&gt;end -->
<g id="edge36" class="edge"><title>is_unstable&#45;&gt;end</title>
<path fill="none" stroke="black" d="M347.92,-137.692C349.289,-137.123 350.65,-136.559 352,-136 384.977,-122.351 422.146,-107.331 451.356,-95.6104"/>
<polygon fill="black" stroke="black" points="452.959,-98.7385 460.939,-91.769 450.354,-92.2411 452.959,-98.7385"/>
</g>
<!-- Monitoring -->
<g id="node11" class="node"><title>Monitoring</title>
<ellipse fill="none" stroke="black" cx="1089" cy="-655" rx="63.8479" ry="18.3848"/>
<text text-anchor="middle" x="1089" y="-651.4" font-family="Times Roman,serif" font-size="14.00">Monitoring</text>
</g>
<!-- noise -->
<g id="node13" class="node"><title>noise</title>
<ellipse fill="none" stroke="black" cx="437" cy="-175" rx="72.832" ry="18.3848"/>
<text text-anchor="middle" x="437" y="-171.4" font-family="Times Roman,serif" font-size="14.00">Delete noise</text>
</g>
<!-- monitor&#45;&gt;noise -->
<g id="edge22" class="edge"><title>monitor&#45;&gt;noise</title>
<path fill="none" stroke="black" d="M571.293,-411.707C560.76,-402.371 549.688,-391.391 541,-380 497.287,-322.691 463.489,-244.21 447.373,-202.955"/>
<polygon fill="black" stroke="black" points="450.609,-201.619 443.752,-193.543 444.076,-204.132 450.609,-201.619"/>
<text text-anchor="middle" x="571.5" y="-320.4" font-family="Times Roman,serif" font-size="14.00">Noise</text>
<text text-anchor="middle" x="571.5" y="-302.4" font-family="Times Roman,serif" font-size="14.00">detected</text>
</g>
<!-- change -->
<g id="node14" class="node"><title>change</title>
<ellipse fill="none" stroke="black" cx="606" cy="-175" rx="77.7817" ry="31.1127"/>
<text text-anchor="middle" x="606" y="-180.4" font-family="Times Roman,serif" font-size="14.00">Change:</text>
<text text-anchor="middle" x="606" y="-162.4" font-family="Times Roman,serif" font-size="14.00">new segment</text>
</g>
<!-- monitor&#45;&gt;change -->
<g id="edge24" class="edge"><title>monitor&#45;&gt;change</title>
<path fill="none" stroke="black" d="M606,-407.94C606,-360.404 606,-269.55 606,-216.445"/>
<polygon fill="black" stroke="black" points="609.5,-216.352 606,-206.352 602.5,-216.352 609.5,-216.352"/>
<text text-anchor="middle" x="639" y="-320.4" font-family="Times Roman,serif" font-size="14.00">Above</text>
<text text-anchor="middle" x="639" y="-302.4" font-family="Times Roman,serif" font-size="14.00">threshold</text>
</g>
<!-- nochange -->
<g id="node15" class="node"><title>nochange</title>
<ellipse fill="none" stroke="black" cx="765" cy="-175" rx="62.9325" ry="18.3848"/>
<text text-anchor="middle" x="765" y="-171.4" font-family="Times Roman,serif" font-size="14.00">No change</text>
</g>
<!-- monitor&#45;&gt;nochange -->
<g id="edge26" class="edge"><title>monitor&#45;&gt;nochange</title>
<path fill="none" stroke="black" d="M643.898,-412.419C655.27,-403.121 667.078,-391.983 676,-380 717.869,-323.769 744.972,-244.791 757.295,-203.188"/>
<polygon fill="black" stroke="black" points="760.694,-204.031 760.109,-193.453 753.97,-202.087 760.694,-204.031"/>
<text text-anchor="middle" x="761" y="-320.4" font-family="Times Roman,serif" font-size="14.00">Within</text>
<text text-anchor="middle" x="761" y="-302.4" font-family="Times Roman,serif" font-size="14.00">threshold</text>
</g>
<!-- noise&#45;&gt;end -->
<g id="edge28" class="edge"><title>noise&#45;&gt;end</title>
<path fill="none" stroke="black" d="M462.532,-136.315C467.698,-128.488 473.122,-120.27 478.26,-112.484"/>
<polygon fill="black" stroke="black" points="481.386,-114.102 483.974,-103.828 475.544,-110.246 481.386,-114.102"/>
</g>
<!-- change&#45;&gt;end -->
<g id="edge30" class="edge"><title>change&#45;&gt;end</title>
<path fill="none" stroke="black" d="M566.117,-136.278C556.551,-126.991 546.421,-117.156 537.142,-108.148"/>
<polygon fill="black" stroke="black" points="539.526,-105.584 529.913,-101.129 534.65,-110.606 539.526,-105.584"/>
</g>
<!-- nochange&#45;&gt;end -->
<g id="edge32" class="edge"><title>nochange&#45;&gt;end</title>
<path fill="none" stroke="black" d="M693,-136C649.128,-117.268 597.483,-101.039 559.119,-90.0399"/>
<polygon fill="black" stroke="black" points="559.743,-86.5789 549.167,-87.2184 557.833,-93.3134 559.743,-86.5789"/>
</g>
</g>
</svg>
